<svg xmlns="http://www.w3.org/2000/svg" viewBox="0 0 1600 1000" preserveAspectRatio="xMidYMid slice" role="presentation"><defs>
<linearGradient id="sky" x1="0" y1="0" x2="0" y2="1"><stop offset="0.00" stop-color="#191713"/><stop offset="0.34" stop-color="#241d16"/><stop offset="0.58" stop-color="#3d2c1b"/><stop offset="0.76" stop-color="#6b4826"/><stop offset="0.90" stop-color="#2a2018"/><stop offset="1.00" stop-color="#14110e"/></linearGradient>
<radialGradient id="glow" cx="0.70" cy="0.72" r="0.40">
  <stop offset="0" stop-color="#e0934a" stop-opacity="0.34"/>
  <stop offset="1" stop-color="#e0934a" stop-opacity="0"/>
</radialGradient>
<radialGradient id="vig" cx="0.5" cy="0.45" r="0.78">
  <stop offset="0.38" stop-color="#000" stop-opacity="0"/>
  <stop offset="1" stop-color="#000" stop-opacity="0.74"/>
</radialGradient>
<filter id="grain" x="0" y="0" width="100%" height="100%">
  <feTurbulence type="fractalNoise" baseFrequency="0.82" numOctaves="3" seed="9"/>
  <feColorMatrix type="saturate" values="0"/>
</filter>
<filter id="soft" x="-20%" y="-20%" width="140%" height="140%">
  <feGaussianBlur stdDeviation="4"/>
</filter>
</defs><rect width="1600" height="1000" fill="url(#sky)"/><rect width="1600" height="1000" fill="url(#glow)"/><g filter="url(#soft)" opacity="0.7"><path d="M1376.0 760V328.0l12.544000000000002 -26.4V280.0h19.712000000000003v26.4l12.544000000000002 26.4V760z" fill="#4a3b2a"/><rect x="1389" y="274" width="7" height="7" fill="#ff5c00"/><rect x="1056.0" y="520.0" width="256.0" height="240.0" fill="#4a3b2a"/><rect x="1084" y="580" width="28" height="19" fill="#000" opacity="0.42"/><rect x="1141" y="580" width="28" height="19" fill="#000" opacity="0.42"/><rect x="1198" y="580" width="28" height="19" fill="#000" opacity="0.42"/><rect x="1255" y="580" width="28" height="19" fill="#000" opacity="0.42"/><rect x="1084" y="610" width="28" height="19" fill="#000" opacity="0.42"/><rect x="1141" y="610" width="28" height="19" fill="#000" opacity="0.42"/><rect x="1198" y="610" width="28" height="19" fill="#000" opacity="0.42"/><rect x="1255" y="610" width="28" height="19" fill="#000" opacity="0.42"/><rect x="1084" y="640" width="28" height="19" fill="#000" opacity="0.42"/><rect x="1141" y="640" width="28" height="19" fill="#000" opacity="0.42"/><rect x="1198" y="640" width="28" height="19" fill="#000" opacity="0.42"/><rect x="1255" y="640" width="28" height="19" fill="#000" opacity="0.42"/><rect x="1084" y="670" width="28" height="19" fill="#000" opacity="0.42"/><rect x="1141" y="670" width="28" height="19" fill="#000" opacity="0.42"/><rect x="1198" y="670" width="28" height="19" fill="#000" opacity="0.42"/><rect x="1255" y="670" width="28" height="19" fill="#000" opacity="0.42"/><rect x="1084" y="700" width="28" height="19" fill="#000" opacity="0.42"/><rect x="1141" y="700" width="28" height="19" fill="#000" opacity="0.42"/><rect x="1198" y="700" width="28" height="19" fill="#000" opacity="0.42"/><rect x="1255" y="700" width="28" height="19" fill="#000" opacity="0.42"/></g><rect x="0" y="560.0" width="1600" height="220.0" fill="#c98a45" opacity="0.15"/><rect x="96.0" y="500.0" width="960.0" height="260.0" fill="#241d15"/><rect x="203" y="565" width="107" height="20" fill="#000" opacity="0.42"/><rect x="416" y="565" width="107" height="20" fill="#000" opacity="0.42"/><rect x="629" y="565" width="107" height="20" fill="#000" opacity="0.42"/><rect x="843" y="565" width="107" height="20" fill="#000" opacity="0.42"/><rect x="203" y="598" width="107" height="20" fill="#000" opacity="0.42"/><rect x="416" y="598" width="107" height="20" fill="#000" opacity="0.42"/><rect x="629" y="598" width="107" height="20" fill="#000" opacity="0.42"/><rect x="843" y="598" width="107" height="20" fill="#000" opacity="0.42"/><rect x="203" y="630" width="107" height="20" fill="#000" opacity="0.42"/><rect x="416" y="630" width="107" height="20" fill="#000" opacity="0.42"/><rect x="629" y="630" width="107" height="20" fill="#000" opacity="0.42"/><rect x="843" y="630" width="107" height="20" fill="#000" opacity="0.42"/><rect x="203" y="662" width="107" height="20" fill="#000" opacity="0.42"/><rect x="416" y="662" width="107" height="20" fill="#000" opacity="0.42"/><rect x="629" y="662" width="107" height="20" fill="#000" opacity="0.42"/><rect x="843" y="662" width="107" height="20" fill="#000" opacity="0.42"/><rect x="203" y="695" width="107" height="20" fill="#000" opacity="0.42"/><rect x="416" y="695" width="107" height="20" fill="#000" opacity="0.42"/><rect x="629" y="695" width="107" height="20" fill="#000" opacity="0.42"/><rect x="843" y="695" width="107" height="20" fill="#000" opacity="0.42"/><path d="M96 500l59 -70 61 70z" fill="#241d15"/><path d="M216 500l59 -70 61 70z" fill="#241d15"/><path d="M336 500l59 -70 61 70z" fill="#241d15"/><path d="M456 500l59 -70 61 70z" fill="#241d15"/><path d="M576 500l59 -70 61 70z" fill="#241d15"/><path d="M696 500l59 -70 61 70z" fill="#241d15"/><path d="M816 500l59 -70 61 70z" fill="#241d15"/><path d="M936 500l59 -70 61 70z" fill="#241d15"/><g stroke="#241d15" stroke-width="5" fill="none"><path d="M1280.0 760V320.0"/><path d="M1274.0 760L1280.0 320.0L1286.0 760"/><path d="M1148 320.0h317"/><path d="M1280.0 290.0L1166 320.0M1280.0 290.0L1544 320.0"/><path d="M1474 320.0v88"/></g><rect x="1465" y="306" width="7" height="7" fill="#ffc61a"/><rect x="0" y="680.0" width="1600" height="110.0" fill="#c98a45" opacity="0.12"/><rect x="832.0" y="420.0" width="208.0" height="340.0" fill="#12100d"/><path d="M832.0 420.0l104.0 -30 104.0 30z" fill="#12100d"/><rect x="855" y="505" width="23" height="26" fill="#000" opacity="0.42"/><rect x="901" y="505" width="23" height="26" fill="#000" opacity="0.42"/><rect x="948" y="505" width="23" height="26" fill="#000" opacity="0.42"/><rect x="994" y="505" width="23" height="26" fill="#000" opacity="0.42"/><rect x="855" y="548" width="23" height="26" fill="#000" opacity="0.42"/><rect x="901" y="548" width="23" height="26" fill="#000" opacity="0.42"/><rect x="948" y="548" width="23" height="26" fill="#000" opacity="0.42"/><rect x="994" y="548" width="23" height="26" fill="#000" opacity="0.42"/><rect x="855" y="590" width="23" height="26" fill="#000" opacity="0.42"/><rect x="901" y="590" width="23" height="26" fill="#000" opacity="0.42"/><rect x="948" y="590" width="23" height="26" fill="#000" opacity="0.42"/><rect x="994" y="590" width="23" height="26" fill="#000" opacity="0.42"/><rect x="855" y="632" width="23" height="26" fill="#000" opacity="0.42"/><rect x="901" y="632" width="23" height="26" fill="#000" opacity="0.42"/><rect x="948" y="632" width="23" height="26" fill="#000" opacity="0.42"/><rect x="994" y="632" width="23" height="26" fill="#000" opacity="0.42"/><rect x="855" y="675" width="23" height="26" fill="#000" opacity="0.42"/><rect x="901" y="675" width="23" height="26" fill="#000" opacity="0.42"/><rect x="948" y="675" width="23" height="26" fill="#000" opacity="0.42"/><rect x="994" y="675" width="23" height="26" fill="#000" opacity="0.42"/><path d="M-20 850L-20 732L41 731L95 728L158 748L195 728L251 749L283 732L328 751L359 726L429 758L493 735L547 750L612 760L671 756L700 758L738 745L802 759L857 740L911 748L970 746L1036 742L1093 760L1161 755L1216 743L1268 755L1310 740L1350 728L1394 759L1424 754L1475 754L1519 736L1549 759L1618 760L1620 850 z" fill="#0a0907"/><rect x="0" y="760" width="1600" height="240" fill="#100d0b"/><rect width="1600" height="1000" fill="url(#vig)"/><rect width="1600" height="1000" filter="url(#grain)" opacity="0.16" style="mix-blend-mode:overlay"/></svg>