<svg xmlns="http://www.w3.org/2000/svg" viewBox="0 0 1600 1200" preserveAspectRatio="xMidYMid slice" role="presentation"><defs>
<linearGradient id="sky" x1="0" y1="0" x2="0" y2="1"><stop offset="0.00" stop-color="#191713"/><stop offset="0.34" stop-color="#241d16"/><stop offset="0.58" stop-color="#3d2c1b"/><stop offset="0.76" stop-color="#6b4826"/><stop offset="0.90" stop-color="#2a2018"/><stop offset="1.00" stop-color="#14110e"/></linearGradient>
<radialGradient id="glow" cx="0.70" cy="0.72" r="0.40">
  <stop offset="0" stop-color="#e0934a" stop-opacity="0.34"/>
  <stop offset="1" stop-color="#e0934a" stop-opacity="0"/>
</radialGradient>
<radialGradient id="vig" cx="0.5" cy="0.45" r="0.78">
  <stop offset="0.38" stop-color="#000" stop-opacity="0"/>
  <stop offset="1" stop-color="#000" stop-opacity="0.74"/>
</radialGradient>
<filter id="grain" x="0" y="0" width="100%" height="100%">
  <feTurbulence type="fractalNoise" baseFrequency="0.82" numOctaves="3" seed="5"/>
  <feColorMatrix type="saturate" values="0"/>
</filter>
<filter id="soft" x="-20%" y="-20%" width="140%" height="140%">
  <feGaussianBlur stdDeviation="4"/>
</filter>
</defs><rect width="1600" height="1200" fill="url(#sky)"/><rect width="1600" height="1200" fill="url(#glow)"/><g filter="url(#soft)" opacity="0.7"><path d="M1248.0 888V283.19999999999993l15.680000000000003 -36.96000000000001V215.9999999999999h24.640000000000004v36.96000000000001l15.680000000000003 36.96000000000001V888z" fill="#4a3b2a"/><rect x="1265" y="210" width="7" height="7" fill="#ff5c00"/><rect x="960.0" y="648.0" width="224.00000000000003" height="240.0" fill="#4a3b2a"/><rect x="985" y="708" width="25" height="19" fill="#000" opacity="0.42"/><rect x="1035" y="708" width="25" height="19" fill="#000" opacity="0.42"/><rect x="1084" y="708" width="25" height="19" fill="#000" opacity="0.42"/><rect x="1134" y="708" width="25" height="19" fill="#000" opacity="0.42"/><rect x="985" y="738" width="25" height="19" fill="#000" opacity="0.42"/><rect x="1035" y="738" width="25" height="19" fill="#000" opacity="0.42"/><rect x="1084" y="738" width="25" height="19" fill="#000" opacity="0.42"/><rect x="1134" y="738" width="25" height="19" fill="#000" opacity="0.42"/><rect x="985" y="768" width="25" height="19" fill="#000" opacity="0.42"/><rect x="1035" y="768" width="25" height="19" fill="#000" opacity="0.42"/><rect x="1084" y="768" width="25" height="19" fill="#000" opacity="0.42"/><rect x="1134" y="768" width="25" height="19" fill="#000" opacity="0.42"/><rect x="985" y="798" width="25" height="19" fill="#000" opacity="0.42"/><rect x="1035" y="798" width="25" height="19" fill="#000" opacity="0.42"/><rect x="1084" y="798" width="25" height="19" fill="#000" opacity="0.42"/><rect x="1134" y="798" width="25" height="19" fill="#000" opacity="0.42"/><rect x="985" y="828" width="25" height="19" fill="#000" opacity="0.42"/><rect x="1035" y="828" width="25" height="19" fill="#000" opacity="0.42"/><rect x="1084" y="828" width="25" height="19" fill="#000" opacity="0.42"/><rect x="1134" y="828" width="25" height="19" fill="#000" opacity="0.42"/></g><rect x="0" y="624.0" width="1600" height="288.0" fill="#c98a45" opacity="0.15"/><path d="M80.0 888V540.0c0 -168.00000000000003 91.52 -96.0 91.52 -252.0h232.96000000000004c0 156.0 91.52 84.00000000000001 91.52 252.0V888z" fill="#241d15"/><ellipse cx="288" cy="288" rx="116" ry="21" fill="#000" opacity="0.35"/><rect x="640.0" y="479.99999999999994" width="416.0" height="408.00000000000006" fill="#241d15"/><rect x="686" y="582" width="46" height="32" fill="#000" opacity="0.42"/><rect x="779" y="582" width="46" height="32" fill="#000" opacity="0.42"/><rect x="871" y="582" width="46" height="32" fill="#000" opacity="0.42"/><rect x="964" y="582" width="46" height="32" fill="#000" opacity="0.42"/><rect x="686" y="633" width="46" height="32" fill="#000" opacity="0.42"/><rect x="779" y="633" width="46" height="32" fill="#000" opacity="0.42"/><rect x="871" y="633" width="46" height="32" fill="#000" opacity="0.42"/><rect x="964" y="633" width="46" height="32" fill="#000" opacity="0.42"/><rect x="686" y="684" width="46" height="32" fill="#000" opacity="0.42"/><rect x="779" y="684" width="46" height="32" fill="#000" opacity="0.42"/><rect x="871" y="684" width="46" height="32" fill="#000" opacity="0.42"/><rect x="964" y="684" width="46" height="32" fill="#000" opacity="0.42"/><rect x="686" y="735" width="46" height="32" fill="#000" opacity="0.42"/><rect x="779" y="735" width="46" height="32" fill="#000" opacity="0.42"/><rect x="871" y="735" width="46" height="32" fill="#000" opacity="0.42"/><rect x="964" y="735" width="46" height="32" fill="#000" opacity="0.42"/><rect x="686" y="786" width="46" height="32" fill="#000" opacity="0.42"/><rect x="779" y="786" width="46" height="32" fill="#000" opacity="0.42"/><rect x="871" y="786" width="46" height="32" fill="#000" opacity="0.42"/><rect x="964" y="786" width="46" height="32" fill="#000" opacity="0.42"/><rect x="0" y="780.0" width="1600" height="144.0" fill="#c98a45" opacity="0.12"/><path d="M1152.0 888V412.8l13.440000000000001 -29.04V360.0h21.12v29.04l13.440000000000001 29.04V888z" fill="#12100d"/><rect x="1166" y="354" width="7" height="7" fill="#ff5c00"/><rect x="544.0" y="696.0" width="41.6" height="192.0" rx="21" fill="#12100d"/><rect x="589.6" y="696.0" width="41.6" height="192.0" rx="21" fill="#12100d"/><rect x="635.2" y="696.0" width="41.6" height="192.0" rx="21" fill="#12100d"/><rect x="680.8" y="696.0" width="41.6" height="192.0" rx="21" fill="#12100d"/><g stroke="#12100d" stroke-width="5" fill="none"><path d="M480 768L640 648"/><path d="M480 816L640 696"/></g><path d="M-20 978L-20 873L43 854L77 865L141 858L207 884L271 888L327 872L388 874L426 858L486 858L537 879L577 879L636 864L662 884L698 886L743 887L786 858L850 864L903 863L965 860L999 865L1031 886L1065 857L1104 872L1173 861L1239 869L1291 856L1341 866L1401 862L1464 874L1511 887L1554 878L1620 978 z" fill="#0a0907"/><rect x="0" y="888" width="1600" height="312" fill="#100d0b"/><rect width="1600" height="1200" fill="url(#vig)"/><rect width="1600" height="1200" filter="url(#grain)" opacity="0.16" style="mix-blend-mode:overlay"/></svg>