<svg xmlns="http://www.w3.org/2000/svg" viewBox="0 0 1600 1000" preserveAspectRatio="xMidYMid slice" role="presentation"><defs>
<linearGradient id="sky" x1="0" y1="0" x2="0" y2="1"><stop offset="0.00" stop-color="#141a20"/><stop offset="0.34" stop-color="#1c242c"/><stop offset="0.58" stop-color="#2f3339"/><stop offset="0.78" stop-color="#5c5346"/><stop offset="0.90" stop-color="#232a31"/><stop offset="1.00" stop-color="#0d1114"/></linearGradient>
<radialGradient id="glow" cx="0.68" cy="0.74" r="0.42">
  <stop offset="0" stop-color="#c9a06a" stop-opacity="0.30"/>
  <stop offset="1" stop-color="#c9a06a" stop-opacity="0"/>
</radialGradient>
<radialGradient id="vig" cx="0.5" cy="0.45" r="0.78">
  <stop offset="0.38" stop-color="#000" stop-opacity="0"/>
  <stop offset="1" stop-color="#000" stop-opacity="0.70"/>
</radialGradient>
<linearGradient id="hazeGrad" x1="0" y1="0" x2="0" y2="1">
  <stop offset="0" stop-color="#9aa6b2" stop-opacity="0"/>
  <stop offset="0.45" stop-color="#9aa6b2" stop-opacity="1"/>
  <stop offset="1" stop-color="#9aa6b2" stop-opacity="0"/>
</linearGradient>
<filter id="grain" x="0" y="0" width="100%" height="100%">
  <feTurbulence type="fractalNoise" baseFrequency="0.82" numOctaves="3" seed="9"/>
  <feColorMatrix type="saturate" values="0"/>
</filter>
<filter id="soft" x="-20%" y="-20%" width="140%" height="140%">
  <feGaussianBlur stdDeviation="4"/>
</filter>
</defs><rect width="1600" height="1000" fill="url(#sky)"/><rect width="1600" height="1000" fill="url(#glow)"/><g filter="url(#soft)" opacity="0.65"><rect x="96" y="600" width="224" height="160" fill="#3f4954"/><path d="M83 600L208 528L333 600z" fill="#3f4954"/><rect x="132" y="654" width="45" height="42" fill="#000" opacity="0.4"/><rect x="230" y="654" width="45" height="42" fill="#000" opacity="0.4"/><rect x="1280" y="590" width="240" height="170" fill="#3f4954"/><path d="M1266 590L1400 514L1534 590z" fill="#3f4954"/><rect x="1318" y="648" width="48" height="44" fill="#000" opacity="0.4"/><rect x="1424" y="648" width="48" height="44" fill="#000" opacity="0.4"/></g><rect x="0" y="560" width="1600" height="240" fill="#9aa6b2" opacity="0.22"/><rect x="384" y="540" width="320" height="220" fill="#242c34"/><path d="M365 540L544 441L723 540z" fill="#242c34"/><rect x="435" y="615" width="64" height="57" fill="#000" opacity="0.4"/><rect x="576" y="615" width="64" height="57" fill="#000" opacity="0.4"/><path d="M800 760v-200h256v70l-96 50h-64v80z" fill="#242c34"/><rect x="0" y="690" width="1600" height="120" fill="#9aa6b2" opacity="0.15"/><ellipse cx="880" cy="683" rx="158" ry="92" fill="#b9b0a2" opacity="0.15" filter="url(#soft)"/><ellipse cx="817" cy="734" rx="115" ry="53" fill="#b9b0a2" opacity="0.11" filter="url(#soft)"/><g transform="translate(1088 760) scale(1.282)"><path d="M10 -76L120 -250" stroke="#414b56" stroke-width="17" stroke-linecap="round"/><path d="M10 -76L120 -250" stroke="#f0a11a" stroke-width="6" stroke-linecap="round" opacity="0.9"/><path d="M120 -250L186 -196" stroke="#414b56" stroke-width="12" stroke-linecap="round"/><path d="M186 -196l26 22-14 20-30-24z" fill="#f0a11a"/><path d="M-70 0h150v-34h-150z" fill="#414b56"/><rect x="-70" y="-34" width="46" height="7" fill="#f0a11a"/><path d="M-32 -34h62v-46h-62z" fill="#414b56"/><rect x="-32" y="-80" width="62" height="6" fill="#f0a11a"/><rect x="-25" y="-70" width="34" height="26" fill="#c8b184" opacity="0.45"/><rect x="16" y="-84" width="7" height="7" fill="#f0a11a"/><rect x="-78" y="-8" width="168" height="16" rx="8" fill="#161c22"/></g><path d="M192 760v-100h224v62l-31 38z" fill="#141a1f"/><rect x="192" y="660" width="224" height="11" fill="#f0a11a"/><path d="M-20 850L-20 753L43 743L77 749L141 745L207 742L237 741L263 731L319 752L380 753L418 738L474 743L535 745L586 740L621 753L687 756L746 748L772 739L802 755L865 759L910 736L937 734L980 745L1044 737L1094 738L1147 748L1209 746L1243 732L1292 757L1320 756L1377 754L1419 730L1488 747L1554 733L1599 747L1620 850 z" fill="#0a0d10"/><rect x="-10" y="900" width="1620" height="30" fill="#0a0d10"/><rect x="0" y="900" width="5" height="46" fill="#080b0d"/><rect x="78" y="900" width="5" height="46" fill="#080b0d"/><rect x="156" y="900" width="5" height="46" fill="#080b0d"/><rect x="234" y="900" width="5" height="46" fill="#080b0d"/><rect x="312" y="900" width="5" height="46" fill="#080b0d"/><rect x="390" y="900" width="5" height="46" fill="#080b0d"/><rect x="468" y="900" width="5" height="46" fill="#080b0d"/><rect x="546" y="900" width="5" height="46" fill="#080b0d"/><rect x="624" y="900" width="5" height="46" fill="#080b0d"/><rect x="702" y="900" width="5" height="46" fill="#080b0d"/><rect x="780" y="900" width="5" height="46" fill="#080b0d"/><rect x="858" y="900" width="5" height="46" fill="#080b0d"/><rect x="936" y="900" width="5" height="46" fill="#080b0d"/><rect x="1014" y="900" width="5" height="46" fill="#080b0d"/><rect x="1092" y="900" width="5" height="46" fill="#080b0d"/><rect x="1170" y="900" width="5" height="46" fill="#080b0d"/><rect x="1248" y="900" width="5" height="46" fill="#080b0d"/><rect x="1326" y="900" width="5" height="46" fill="#080b0d"/><rect x="1404" y="900" width="5" height="46" fill="#080b0d"/><rect x="1482" y="900" width="5" height="46" fill="#080b0d"/><rect x="1560" y="900" width="5" height="46" fill="#080b0d"/><rect x="1638" y="900" width="5" height="46" fill="#080b0d"/><rect x="0" y="760" width="1600" height="240" fill="#0b0e11"/><rect width="1600" height="1000" fill="url(#vig)"/><rect width="1600" height="1000" filter="url(#grain)" opacity="0.16" style="mix-blend-mode:overlay"/></svg>