<svg xmlns="http://www.w3.org/2000/svg" viewBox="0 0 1600 1000" preserveAspectRatio="xMidYMid slice" role="presentation"><defs>
<linearGradient id="sky" x1="0" y1="0" x2="0" y2="1"><stop offset="0.00" stop-color="#191713"/><stop offset="0.34" stop-color="#241d16"/><stop offset="0.58" stop-color="#3d2c1b"/><stop offset="0.76" stop-color="#6b4826"/><stop offset="0.90" stop-color="#2a2018"/><stop offset="1.00" stop-color="#14110e"/></linearGradient>
<radialGradient id="glow" cx="0.70" cy="0.72" r="0.40">
  <stop offset="0" stop-color="#e0934a" stop-opacity="0.34"/>
  <stop offset="1" stop-color="#e0934a" stop-opacity="0"/>
</radialGradient>
<radialGradient id="vig" cx="0.5" cy="0.45" r="0.78">
  <stop offset="0.38" stop-color="#000" stop-opacity="0"/>
  <stop offset="1" stop-color="#000" stop-opacity="0.74"/>
</radialGradient>
<filter id="grain" x="0" y="0" width="100%" height="100%">
  <feTurbulence type="fractalNoise" baseFrequency="0.82" numOctaves="3" seed="23"/>
  <feColorMatrix type="saturate" values="0"/>
</filter>
<filter id="soft" x="-20%" y="-20%" width="140%" height="140%">
  <feGaussianBlur stdDeviation="4"/>
</filter>
</defs><rect width="1600" height="1000" fill="url(#sky)"/><rect width="1600" height="1000" fill="url(#glow)"/><rect x="0" y="540.0" width="1600" height="240.0" fill="#c98a45" opacity="0.14"/><rect x="64.0" y="560.0" width="480.0" height="200.0" fill="#241d15"/><rect x="117" y="610" width="53" height="16" fill="#000" opacity="0.42"/><rect x="224" y="610" width="53" height="16" fill="#000" opacity="0.42"/><rect x="331" y="610" width="53" height="16" fill="#000" opacity="0.42"/><rect x="437" y="610" width="53" height="16" fill="#000" opacity="0.42"/><rect x="117" y="635" width="53" height="16" fill="#000" opacity="0.42"/><rect x="224" y="635" width="53" height="16" fill="#000" opacity="0.42"/><rect x="331" y="635" width="53" height="16" fill="#000" opacity="0.42"/><rect x="437" y="635" width="53" height="16" fill="#000" opacity="0.42"/><rect x="117" y="660" width="53" height="16" fill="#000" opacity="0.42"/><rect x="224" y="660" width="53" height="16" fill="#000" opacity="0.42"/><rect x="331" y="660" width="53" height="16" fill="#000" opacity="0.42"/><rect x="437" y="660" width="53" height="16" fill="#000" opacity="0.42"/><rect x="117" y="685" width="53" height="16" fill="#000" opacity="0.42"/><rect x="224" y="685" width="53" height="16" fill="#000" opacity="0.42"/><rect x="331" y="685" width="53" height="16" fill="#000" opacity="0.42"/><rect x="437" y="685" width="53" height="16" fill="#000" opacity="0.42"/><rect x="117" y="710" width="53" height="16" fill="#000" opacity="0.42"/><rect x="224" y="710" width="53" height="16" fill="#000" opacity="0.42"/><rect x="331" y="710" width="53" height="16" fill="#000" opacity="0.42"/><rect x="437" y="710" width="53" height="16" fill="#000" opacity="0.42"/><rect x="640.0" y="600.0" width="416.0" height="160.0" fill="#241d15"/><rect x="686" y="640" width="46" height="12" fill="#000" opacity="0.42"/><rect x="779" y="640" width="46" height="12" fill="#000" opacity="0.42"/><rect x="871" y="640" width="46" height="12" fill="#000" opacity="0.42"/><rect x="964" y="640" width="46" height="12" fill="#000" opacity="0.42"/><rect x="686" y="660" width="46" height="12" fill="#000" opacity="0.42"/><rect x="779" y="660" width="46" height="12" fill="#000" opacity="0.42"/><rect x="871" y="660" width="46" height="12" fill="#000" opacity="0.42"/><rect x="964" y="660" width="46" height="12" fill="#000" opacity="0.42"/><rect x="686" y="680" width="46" height="12" fill="#000" opacity="0.42"/><rect x="779" y="680" width="46" height="12" fill="#000" opacity="0.42"/><rect x="871" y="680" width="46" height="12" fill="#000" opacity="0.42"/><rect x="964" y="680" width="46" height="12" fill="#000" opacity="0.42"/><rect x="686" y="700" width="46" height="12" fill="#000" opacity="0.42"/><rect x="779" y="700" width="46" height="12" fill="#000" opacity="0.42"/><rect x="871" y="700" width="46" height="12" fill="#000" opacity="0.42"/><rect x="964" y="700" width="46" height="12" fill="#000" opacity="0.42"/><rect x="686" y="720" width="46" height="12" fill="#000" opacity="0.42"/><rect x="779" y="720" width="46" height="12" fill="#000" opacity="0.42"/><rect x="871" y="720" width="46" height="12" fill="#000" opacity="0.42"/><rect x="964" y="720" width="46" height="12" fill="#000" opacity="0.42"/><g stroke="#241d15" stroke-width="5" fill="none"><path d="M1216.0 760V360.0"/><path d="M1210.0 760L1216.0 360.0L1222.0 760"/><path d="M1096 360.0h288"/><path d="M1216.0 330.0L1112 360.0M1216.0 330.0L1456 360.0"/><path d="M1392 360.0v80"/></g><rect x="1384" y="346" width="7" height="7" fill="#ffc61a"/><rect x="0" y="680.0" width="1600" height="110.0" fill="#c98a45" opacity="0.12"/><rect x="96" y="670" width="104" height="90" fill="#12100d"/><rect x="216" y="670" width="104" height="90" fill="#12100d"/><rect x="336" y="670" width="104" height="90" fill="#12100d"/><rect x="456" y="670" width="104" height="90" fill="#12100d"/><rect x="704" y="650" width="192" height="110" fill="#7e3418"/><rect x="928" y="660" width="176" height="100" fill="#12100d"/><ellipse cx="416" cy="676" rx="176" ry="101" fill="#c9a271" opacity="0.13" filter="url(#soft)"/><ellipse cx="346" cy="726" rx="128" ry="62" fill="#c9a271" opacity="0.10" filter="url(#soft)"/><g transform="translate(320.0 760) scale(1.4285714285714286)"><path d="M10 -76L120 -250" stroke="#241e18" stroke-width="17" stroke-linecap="round"/><path d="M10 -76L120 -250" stroke="#ff5c00" stroke-width="6" stroke-linecap="round" opacity="0.85"/><path d="M120 -250L186 -196" stroke="#241e18" stroke-width="12" stroke-linecap="round"/><path d="M186 -196l26 22-14 20-30-24z" fill="#ff5c00"/><path d="M-70 0h150v-34h-150z" fill="#241e18"/><rect x="-70" y="-34" width="150" height="7" fill="#ff5c00"/><path d="M-30 -34h58v-42h-58z" fill="#241e18"/><rect x="-24" y="-70" width="30" height="24" fill="#c8a05a" opacity="0.45"/><rect x="16" y="-84" width="7" height="7" fill="#ffc61a"/><rect x="-78" y="-8" width="168" height="16" rx="8" fill="#15120f"/></g><path d="M-20 850L-20 758L39 753L97 748L148 738L207 742L270 751L334 744L366 744L418 740L461 754L507 741L534 748L564 748L597 726L652 736L682 754L734 759L766 733L817 732L885 741L947 728L983 734L1023 726L1085 754L1124 736L1162 752L1196 729L1228 731L1254 731L1310 753L1369 730L1427 729L1476 733L1536 749L1562 745L1593 759L1620 850 z" fill="#0a0907"/><rect x="-10" y="910.0" width="1620" height="30" fill="#161310"/><rect x="0" y="910.0" width="5" height="46" fill="#0a0907"/><rect x="78" y="910.0" width="5" height="46" fill="#0a0907"/><rect x="156" y="910.0" width="5" height="46" fill="#0a0907"/><rect x="234" y="910.0" width="5" height="46" fill="#0a0907"/><rect x="312" y="910.0" width="5" height="46" fill="#0a0907"/><rect x="390" y="910.0" width="5" height="46" fill="#0a0907"/><rect x="468" y="910.0" width="5" height="46" fill="#0a0907"/><rect x="546" y="910.0" width="5" height="46" fill="#0a0907"/><rect x="624" y="910.0" width="5" height="46" fill="#0a0907"/><rect x="702" y="910.0" width="5" height="46" fill="#0a0907"/><rect x="780" y="910.0" width="5" height="46" fill="#0a0907"/><rect x="858" y="910.0" width="5" height="46" fill="#0a0907"/><rect x="936" y="910.0" width="5" height="46" fill="#0a0907"/><rect x="1014" y="910.0" width="5" height="46" fill="#0a0907"/><rect x="1092" y="910.0" width="5" height="46" fill="#0a0907"/><rect x="1170" y="910.0" width="5" height="46" fill="#0a0907"/><rect x="1248" y="910.0" width="5" height="46" fill="#0a0907"/><rect x="1326" y="910.0" width="5" height="46" fill="#0a0907"/><rect x="1404" y="910.0" width="5" height="46" fill="#0a0907"/><rect x="1482" y="910.0" width="5" height="46" fill="#0a0907"/><rect x="1560" y="910.0" width="5" height="46" fill="#0a0907"/><rect x="1638" y="910.0" width="5" height="46" fill="#0a0907"/><rect x="0" y="760" width="1600" height="240" fill="#100d0b"/><rect width="1600" height="1000" fill="url(#vig)"/><rect width="1600" height="1000" filter="url(#grain)" opacity="0.16" style="mix-blend-mode:overlay"/></svg>